<svg xmlns="http://www.w3.org/2000/svg" width="26.167" height="27.542" viewBox="0 0 26.167 27.542">
  <g id="enlaces" transform="translate(-36.602 -0.879)">
    <path id="Trazado_18" data-name="Trazado 18" d="M13.5,12.948,23.448,3" transform="translate(37.2 0)" fill="none" stroke="#fff" stroke-linecap="round" stroke-linejoin="round" stroke-width="3"/>
    <path id="Trazado_19" data-name="Trazado 19" d="M16,3h6.632V9.632" transform="translate(38.016 0)" fill="none" stroke="#fff" stroke-linecap="round" stroke-linejoin="round" stroke-width="3"/>
    <path id="Trazado_20" data-name="Trazado 20" d="M24.545,17.007v6.367a2.631,2.631,0,0,1-.7,1.8,2.323,2.323,0,0,1-1.693.746H5.394A2.323,2.323,0,0,1,3.7,25.174a2.632,2.632,0,0,1-.7-1.8V5.547a2.631,2.631,0,0,1,.7-1.8A2.323,2.323,0,0,1,5.394,3h5.985" transform="translate(35.102 1)" fill="none" stroke="#fff" stroke-linecap="round" stroke-linejoin="round" stroke-width="3"/>
  </g>
</svg>
