<svg xmlns="http://www.w3.org/2000/svg" width="66.178" height="77.674" viewBox="0 0 66.178 77.674">
  <g id="file-project-tesis" transform="translate(4 4)">
    <path id="Trazado_10" data-name="Trazado 10" d="M41.362,2.5H12.272A7.437,7.437,0,0,0,7.13,4.541,6.823,6.823,0,0,0,5,9.467V65.207a6.823,6.823,0,0,0,2.13,4.927,7.437,7.437,0,0,0,5.142,2.041H55.906a7.438,7.438,0,0,0,5.142-2.041,6.824,6.824,0,0,0,2.13-4.927V23.4Z" transform="translate(-5 -2.5)" fill="none" stroke="#1f4794" stroke-linecap="round" stroke-linejoin="round" stroke-width="8"/>
    <path id="Trazado_11" data-name="Trazado 11" d="M17.5,2.5V23.233H39.121" transform="translate(19.057 -2.01)" fill="none" stroke="#1f4794" stroke-linecap="round" stroke-linejoin="round" stroke-width="8"/>
    <path id="Trazado_12" data-name="Trazado 12" d="M41.943,16.25H10" transform="translate(3.118 22.071)" fill="none" stroke="#1f4794" stroke-linecap="round" stroke-linejoin="round" stroke-width="8"/>
    <path id="Trazado_13" data-name="Trazado 13" d="M41.943,21.25H10" transform="translate(3.118 31.006)" fill="none" stroke="#1f4794" stroke-linecap="round" stroke-linejoin="round" stroke-width="8"/>
    <path id="Trazado_14" data-name="Trazado 14" d="M16.559,11.25H10" transform="translate(4.748 13.136)" fill="none" stroke="#1f4794" stroke-linecap="round" stroke-linejoin="round" stroke-width="8"/>
  </g>
</svg>
