<svg xmlns="http://www.w3.org/2000/svg" width="63.254" height="77.068" viewBox="0 0 63.254 77.068">
  <g id="file-project-academic" transform="translate(4 4)">
    <path id="Trazado_6" data-name="Trazado 6" d="M5,9.407V64.661a6.907,6.907,0,0,0,6.907,6.907H53.347a6.906,6.906,0,0,0,6.907-6.907V24.4a6.908,6.908,0,0,0-2.079-4.938L42.842,4.468A6.907,6.907,0,0,0,38.014,2.5H11.907A6.907,6.907,0,0,0,5,9.407Z" transform="translate(-5 -2.5)" fill="none" stroke="#1f4794" stroke-linecap="round" stroke-linejoin="round" stroke-width="8"/>
    <path id="Trazado_7" data-name="Trazado 7" d="M11.25,16.25H31.97" transform="translate(6.017 21.737)" fill="none" stroke="#1f4794" stroke-linecap="round" stroke-linejoin="round" stroke-width="8"/>
    <path id="Trazado_8" data-name="Trazado 8" d="M11.25,21.25H21.61" transform="translate(6.017 30.551)" fill="none" stroke="#1f4794" stroke-linecap="round" stroke-linejoin="round" stroke-width="8"/>
    <path id="Trazado_9" data-name="Trazado 9" d="M17.5,2.5V16.314a6.907,6.907,0,0,0,6.907,6.907H38.22" transform="translate(17.034 -2.5)" fill="none" stroke="#1f4794" stroke-linejoin="round" stroke-width="8"/>
  </g>
</svg>
