<svg xmlns="http://www.w3.org/2000/svg" width="25" height="25" viewBox="0 0 25 25">
  <path id="terminos" d="M25.222,3H5.778A2.786,2.786,0,0,0,3,5.778V25.222A2.786,2.786,0,0,0,5.778,28H25.222A2.786,2.786,0,0,0,28,25.222V5.778A2.786,2.786,0,0,0,25.222,3ZM16.889,22.444H9.944a1.389,1.389,0,0,1,0-2.778h6.944a1.389,1.389,0,0,1,0,2.778Zm4.167-5.556H9.944a1.389,1.389,0,0,1,0-2.778H21.056a1.389,1.389,0,0,1,0,2.778Zm0-5.556H9.944a1.389,1.389,0,1,1,0-2.778H21.056a1.389,1.389,0,1,1,0,2.778Z" transform="translate(-3 -3)" fill="#fff"/>
</svg>
