<svg xmlns="http://www.w3.org/2000/svg" width="25.125" height="25.5" viewBox="0 0 25.125 25.5">
  <path id="ubicacion" d="M10.977,9.75a18.313,18.313,0,0,1,1.005-3.48,7.883,7.883,0,0,1,1.512-2.494A2.145,2.145,0,0,1,15,3a2.145,2.145,0,0,1,1.506.776A7.9,7.9,0,0,1,18.018,6.27a18.313,18.313,0,0,1,1.005,3.48ZM10.594,5.7a10.783,10.783,0,0,1,1.241-2.28A12.03,12.03,0,0,0,4.206,9.75H9.452A20.088,20.088,0,0,1,10.594,5.7Zm8.811,0a10.783,10.783,0,0,0-1.24-2.278A12.03,12.03,0,0,1,25.794,9.75H20.549A20.089,20.089,0,0,0,19.406,5.7Zm1.369,5.55H26.4a11.99,11.99,0,0,1,.6,3.885,7.023,7.023,0,0,0-6.027-1.469q-.05-1.212-.2-2.417Zm-5.38,9q-.019.267-.019.535A8.036,8.036,0,0,0,17.09,25.5a5.4,5.4,0,0,1-.583.723A2.145,2.145,0,0,1,15,27a2.145,2.145,0,0,1-1.506-.775,7.928,7.928,0,0,1-1.514-2.495,18.319,18.319,0,0,1-1-3.48Zm.264-1.5a7.268,7.268,0,0,1,3.831-4.571,28.737,28.737,0,0,0-.225-2.929H10.736a29.88,29.88,0,0,0,0,7.5h4.921ZM4.206,20.25a12.03,12.03,0,0,0,7.63,6.329A10.786,10.786,0,0,1,10.594,24.3,20.26,20.26,0,0,1,9.452,20.25Zm5.019-1.5H3.6a12.076,12.076,0,0,1,0-7.5H9.225a31.362,31.362,0,0,0,0,7.5ZM22.5,15a5.707,5.707,0,0,1,5.625,5.785c0,2.4-1.774,4.905-5.25,7.586a.611.611,0,0,1-.75,0c-3.476-2.681-5.25-5.19-5.25-7.586A5.707,5.707,0,0,1,22.5,15Zm0,3.857a1.93,1.93,0,1,0,1.875,1.929A1.9,1.9,0,0,0,22.5,18.857Z" transform="translate(-3 -3)" fill="#fff"/>
</svg>
